# xmcd
#
# Track frame offsets:
#	150
#	14389
#	28595
#	46817
#	64706
#	78168
#	99080
#	113728
#	124605
#	139657
#	152606
#	166376
#	189877
#	204710
#	216503
#	245728
#	260148
#	270966
#
# Disc length: 3785 seconds
#
# Revision: 1
# Processed by: cddbd v1.5.1PL0 Copyright (c) Steve Scherf et al.
# Submitted via: audiograbber 1.83.01
#
DISCID=ef0ec712
DTITLE=Various Artist - Jazz and Blues Divas
DYEAR=1998
DGENRE=Blues
TTITLE0=Billie Holiday - Good Morning Heartache
TTITLE1=Etta James - Stormy Weather
TTITLE2=Ella Fitzgerald - Stardust
TTITLE3=Diane Schuur - Unforgettable
TTITLE4=Carmen Mcrae - Summertime
TTITLE5=Diana Krall - You Call It Madness
TTITLE6=Fontella Bass - Baby What You Want Me To Do
TTITLE7=Shirley Horn - Some Of My Best Friends Are The Blues
TTITLE8=Dina Washington and Lionel Hampton - Blow Top Blues
TTITLE9=Big Mamma Thorton - Hound Dog
TTITLE10=Koko Taylor - Wand Dang Doodle
TTITLE11=Diane Schuur - Speak Low
TTITLE12=Ella Fitzgerald - Someone To Watch Over Me
TTITLE13=Carmen Mcrae - Blue Moon
TTITLE14=Diana Krall - Boulevard Of The Broken Dreams
TTITLE15=Billie Holiday - God Bless The Child
TTITLE16=Etta James - Tell Mamm
TTITLE17=Fontella Bass - Rescue Me
EXTD=
EXTT0=
EXTT1=
EXTT2=
EXTT3=
EXTT4=
EXTT5=
EXTT6=
EXTT7=
EXTT8=
EXTT9=
EXTT10=
EXTT11=
EXTT12=
EXTT13=
EXTT14=
EXTT15=
EXTT16=
EXTT17=
PLAYORDER=
